<svg xmlns="http://www.w3.org/2000/svg" viewBox="0 0 320 320" fill="none">
  <path d="M312 130c-38-28-92-18-115 22-7 15-5 36 8 48 26 24 74 14 107-70z" fill="#4A6741" opacity=".85"/>
  <path d="M320 210c-32-8-65 6-82 40-11 24-3 48 20 54 38 10 62-48 62-94z" fill="#5C7A52" opacity=".75"/>
  <ellipse cx="225" cy="70" rx="20" ry="30" fill="#C41E3A" transform="rotate(20 225 70)"/>
  <ellipse cx="248" cy="55" rx="16" ry="26" fill="#B91C3A" transform="rotate(-8 248 55)"/>
  <ellipse cx="205" cy="45" rx="14" ry="22" fill="#D4622A" transform="rotate(30 205 45)"/>
  <ellipse cx="265" cy="82" rx="12" ry="20" fill="#E8A317" transform="rotate(-15 265 82)"/>
  <ellipse cx="235" cy="95" rx="11" ry="18" fill="#F4C430" transform="rotate(10 235 95)"/>
  <circle cx="228" cy="58" r="9" fill="#9B1B30"/>
  <path d="M180 35c-6 14 2 30 16 36 16 8 30-4 26-20-6-18-30-26-42-16z" fill="#E8A317"/>
  <ellipse cx="170" cy="88" rx="10" ry="16" fill="#4A6741" transform="rotate(-35 170 88)"/>
</svg>
